<svg width="143" height="16" viewBox="0 0 143 16" fill="none" xmlns="http://www.w3.org/2000/svg">
<path d="M0.860795 12V3.27273H4.2017C4.83239 3.27273 5.35653 3.37216 5.77415 3.57102C6.1946 3.76705 6.50852 4.03551 6.71591 4.37642C6.92614 4.71733 7.03125 5.10369 7.03125 5.53551C7.03125 5.89062 6.96307 6.1946 6.8267 6.44744C6.69034 6.69744 6.5071 6.90057 6.27699 7.05682C6.04688 7.21307 5.78977 7.32528 5.50568 7.39347V7.47869C5.81534 7.49574 6.11222 7.59091 6.39631 7.7642C6.68324 7.93466 6.91761 8.17614 7.09943 8.48864C7.28125 8.80114 7.37216 9.17898 7.37216 9.62216C7.37216 10.0739 7.26278 10.4801 7.04403 10.8409C6.82528 11.1989 6.49574 11.4815 6.0554 11.6889C5.61506 11.8963 5.06108 12 4.39347 12H0.860795ZM2.44176 10.679H4.14205C4.71591 10.679 5.12926 10.5696 5.3821 10.3509C5.63778 10.1293 5.76562 9.84517 5.76562 9.49858C5.76562 9.24006 5.7017 9.0071 5.57386 8.79972C5.44602 8.58949 5.2642 8.42472 5.02841 8.3054C4.79261 8.18324 4.51136 8.12216 4.18466 8.12216H2.44176V10.679ZM2.44176 6.98438H4.00568C4.27841 6.98438 4.52415 6.93466 4.7429 6.83523C4.96165 6.73295 5.13352 6.58949 5.25852 6.40483C5.38636 6.21733 5.45028 5.99574 5.45028 5.74006C5.45028 5.40199 5.33097 5.12358 5.09233 4.90483C4.85653 4.68608 4.50568 4.5767 4.03977 4.5767H2.44176V6.98438ZM12.8032 9.24716V5.45455H14.3458V12H12.8501V10.8366H12.7819C12.6342 11.2031 12.3913 11.5028 12.0532 11.7358C11.718 11.9687 11.3046 12.0852 10.8132 12.0852C10.3842 12.0852 10.0049 11.9901 9.67537 11.7997C9.34866 11.6065 9.09298 11.3267 8.90832 10.9602C8.72366 10.5909 8.63133 10.1449 8.63133 9.62216V5.45455H10.1739V9.38352C10.1739 9.7983 10.2876 10.1278 10.5149 10.3722C10.7421 10.6165 11.0404 10.7386 11.4097 10.7386C11.637 10.7386 11.8572 10.6832 12.0703 10.5724C12.2833 10.4616 12.458 10.2969 12.5944 10.0781C12.7336 9.85653 12.8032 9.57955 12.8032 9.24716ZM15.8841 12V5.45455H17.4267V12H15.8841ZM16.6597 4.52557C16.4154 4.52557 16.2051 4.4446 16.029 4.28267C15.8529 4.1179 15.7648 3.92045 15.7648 3.69034C15.7648 3.45739 15.8529 3.25994 16.029 3.09801C16.2051 2.93324 16.4154 2.85085 16.6597 2.85085C16.9068 2.85085 17.1171 2.93324 17.2904 3.09801C17.4665 3.25994 17.5546 3.45739 17.5546 3.69034C17.5546 3.92045 17.4665 4.1179 17.2904 4.28267C17.1171 4.4446 16.9068 4.52557 16.6597 4.52557ZM20.5076 3.27273V12H18.965V3.27273H20.5076ZM24.4749 12.1151C23.9607 12.1151 23.5005 11.983 23.0942 11.7188C22.688 11.4545 22.3669 11.071 22.1312 10.5682C21.8954 10.0653 21.7775 9.45455 21.7775 8.7358C21.7775 8.00852 21.8968 7.39489 22.1354 6.89489C22.3769 6.39205 22.7022 6.01278 23.1113 5.7571C23.5204 5.49858 23.9763 5.36932 24.4792 5.36932C24.8627 5.36932 25.178 5.43466 25.4252 5.56534C25.6723 5.69318 25.8684 5.84801 26.0133 6.02983C26.1581 6.20881 26.2704 6.37784 26.3499 6.53693H26.4138V3.27273H27.9607V12H26.4437V10.9688H26.3499C26.2704 11.1278 26.1553 11.2969 26.0047 11.4759C25.8542 11.652 25.6553 11.8026 25.4081 11.9276C25.161 12.0526 24.8499 12.1151 24.4749 12.1151ZM24.9053 10.8494C25.232 10.8494 25.5104 10.7614 25.7405 10.5852C25.9706 10.4062 26.1454 10.1577 26.2647 9.83949C26.384 9.52131 26.4437 9.15057 26.4437 8.72727C26.4437 8.30398 26.384 7.93608 26.2647 7.62358C26.1482 7.31108 25.9749 7.06818 25.7448 6.89489C25.5175 6.72159 25.2377 6.63494 24.9053 6.63494C24.5616 6.63494 24.2746 6.72443 24.0445 6.90341C23.8144 7.08239 23.6411 7.32955 23.5246 7.64489C23.4081 7.96023 23.3499 8.32102 23.3499 8.72727C23.3499 9.13636 23.4081 9.50142 23.5246 9.82244C23.6439 10.1406 23.8187 10.392 24.0488 10.5767C24.2817 10.7585 24.5672 10.8494 24.9053 10.8494ZM33.8359 12L31.9865 5.45455H33.5589L34.7095 10.0568H34.7692L35.9453 5.45455H37.5007L38.6768 10.0312H38.7408L39.8743 5.45455H41.451L39.5973 12H37.9908L36.7635 7.5767H36.674L35.4467 12H33.8359ZM42.4801 12V5.45455H44.0227V12H42.4801ZM43.2556 4.52557C43.0113 4.52557 42.8011 4.4446 42.6249 4.28267C42.4488 4.1179 42.3607 3.92045 42.3607 3.69034C42.3607 3.45739 42.4488 3.25994 42.6249 3.09801C42.8011 2.93324 43.0113 2.85085 43.2556 2.85085C43.5028 2.85085 43.713 2.93324 43.8863 3.09801C44.0624 3.25994 44.1505 3.45739 44.1505 3.69034C44.1505 3.92045 44.0624 4.1179 43.8863 4.28267C43.713 4.4446 43.5028 4.52557 43.2556 4.52557ZM48.8294 5.45455V6.64773H45.0666V5.45455H48.8294ZM45.9956 3.88636H47.5382V10.0312C47.5382 10.2386 47.5695 10.3977 47.632 10.5085C47.6973 10.6165 47.7825 10.6903 47.8877 10.7301C47.9928 10.7699 48.1093 10.7898 48.2371 10.7898C48.3337 10.7898 48.4218 10.7827 48.5013 10.7685C48.5837 10.7543 48.6462 10.7415 48.6888 10.7301L48.9487 11.9361C48.8664 11.9645 48.7485 11.9957 48.595 12.0298C48.4445 12.0639 48.2598 12.0838 48.0411 12.0895C47.6547 12.1009 47.3067 12.0426 46.997 11.9148C46.6874 11.7841 46.4416 11.5824 46.2598 11.3097C46.0808 11.0369 45.9928 10.696 45.9956 10.2869V3.88636ZM51.7548 8.16477V12H50.2122V3.27273H51.7207V6.56676H51.7974C51.9508 6.19744 52.188 5.90625 52.5091 5.69318C52.8329 5.47727 53.2448 5.36932 53.7448 5.36932C54.1994 5.36932 54.5957 5.46449 54.9338 5.65483C55.2718 5.84517 55.5332 6.12358 55.7179 6.49006C55.9054 6.85653 55.9991 7.30398 55.9991 7.83239V12H54.4565V8.07102C54.4565 7.63068 54.3429 7.28835 54.1156 7.04403C53.8912 6.79687 53.5758 6.6733 53.1696 6.6733C52.8968 6.6733 52.6525 6.73295 52.4366 6.85227C52.2235 6.96875 52.0559 7.13778 51.9338 7.35938C51.8144 7.58097 51.7548 7.84943 51.7548 8.16477ZM75.5744 12V3.27273H77.117V6.53693H77.1809C77.2605 6.37784 77.3727 6.20881 77.5176 6.02983C77.6625 5.84801 77.8585 5.69318 78.1056 5.56534C78.3528 5.43466 78.6681 5.36932 79.0517 5.36932C79.5573 5.36932 80.0133 5.49858 80.4196 5.7571C80.8286 6.01278 81.1525 6.39205 81.3911 6.89489C81.6326 7.39489 81.7534 8.00852 81.7534 8.7358C81.7534 9.45455 81.6355 10.0653 81.3997 10.5682C81.1639 11.071 80.8429 11.4545 80.4366 11.7188C80.0304 11.983 79.5701 12.1151 79.0559 12.1151C78.6809 12.1151 78.3698 12.0526 78.1227 11.9276C77.8755 11.8026 77.6767 11.652 77.5261 11.4759C77.3784 11.2969 77.2633 11.1278 77.1809 10.9688H77.0914V12H75.5744ZM77.0872 8.72727C77.0872 9.15057 77.1468 9.52131 77.2661 9.83949C77.3883 10.1577 77.563 10.4062 77.7903 10.5852C78.0204 10.7614 78.2988 10.8494 78.6255 10.8494C78.9664 10.8494 79.2519 10.7585 79.4821 10.5767C79.7122 10.392 79.8855 10.1406 80.0019 9.82244C80.1213 9.50142 80.1809 9.13636 80.1809 8.72727C80.1809 8.32102 80.1227 7.96023 80.0062 7.64489C79.8897 7.32955 79.7164 7.08239 79.4863 6.90341C79.2562 6.72443 78.9693 6.63494 78.6255 6.63494C78.296 6.63494 78.0161 6.72159 77.786 6.89489C77.5559 7.06818 77.3812 7.31108 77.2619 7.62358C77.1454 7.93608 77.0872 8.30398 77.0872 8.72727ZM83.753 14.4545C83.5427 14.4545 83.3481 14.4375 83.1691 14.4034C82.993 14.3722 82.8524 14.3352 82.7473 14.2926L83.1052 13.0909C83.3297 13.1563 83.5299 13.1875 83.7061 13.1847C83.8822 13.1818 84.037 13.1264 84.1706 13.0185C84.3069 12.9134 84.422 12.7372 84.5157 12.4901L84.6478 12.1364L82.2743 5.45455H83.9106L85.4191 10.3977H85.4873L87.0001 5.45455H88.6407L86.02 12.7926C85.8978 13.1392 85.7359 13.4361 85.5342 13.6832C85.3325 13.9332 85.0853 14.1236 84.7927 14.2543C84.503 14.3878 84.1564 14.4545 83.753 14.4545Z" fill="#9FA3A6"/>
<path d="M65.7959 12.1364L61.4152 7.75568C61.0658 7.40625 60.8328 7 60.7163 6.53693C60.6027 6.07386 60.6041 5.61364 60.7206 5.15625C60.8371 4.69602 61.0686 4.29545 61.4152 3.95455C61.7703 3.60511 62.1751 3.37358 62.6297 3.25994C63.0871 3.14347 63.543 3.14347 63.9976 3.25994C64.455 3.37642 64.8612 3.60795 65.2163 3.95455L65.7959 4.51705L66.3754 3.95455C66.7334 3.60795 67.1396 3.37642 67.5942 3.25994C68.0487 3.14347 68.5033 3.14347 68.9578 3.25994C69.4152 3.37358 69.8214 3.60511 70.1765 3.95455C70.5231 4.29545 70.7547 4.69602 70.8711 5.15625C70.9876 5.61364 70.9876 6.07386 70.8711 6.53693C70.7575 7 70.526 7.40625 70.1765 7.75568L65.7959 12.1364Z" fill="#E63737"/>
<path fill-rule="evenodd" clip-rule="evenodd" d="M101.992 3.83453C100.86 3.83453 99.9235 4.23351 99.2666 4.99259V1H98V12.7103H99.2666V11.5642C99.9235 12.3233 100.86 12.7223 101.992 12.7223C104.398 12.7223 105.723 11.1486 105.723 8.27887C105.723 5.40916 104.398 3.83453 101.992 3.83453ZM104.424 8.27841C104.424 10.4369 103.575 11.5318 101.9 11.5318C99.7236 11.5318 99.2666 9.77297 99.2666 8.29183C99.2666 6.18398 100.202 5.02499 101.9 5.02499C103.575 5.02499 104.424 6.11903 104.424 8.27841ZM113.273 6.80606C114.334 6.28396 114.893 5.42583 114.893 4.31312C114.896 3.88989 114.803 3.47145 114.62 3.08977C114.438 2.70808 114.17 2.37325 113.838 2.11085C113.13 1.53876 112.118 1.23606 110.914 1.23606C109.709 1.23606 108.699 1.54062 107.992 2.11085C107.66 2.37306 107.392 2.70781 107.209 3.08951C107.026 3.4712 106.932 3.88974 106.935 4.31312C106.935 5.43786 107.491 6.30155 108.548 6.82273C107.271 7.36149 106.65 8.2798 106.65 9.623C106.65 10.6052 107.02 11.4383 107.721 12.0345C108.474 12.6751 109.549 13 110.914 13C114.059 13 115.179 11.256 115.179 9.623C115.179 8.26776 114.555 7.34483 113.273 6.80606ZM110.914 7.47998C112.867 7.47998 113.821 8.19371 113.821 9.6554C113.821 11.6262 111.6 11.7845 110.918 11.7845C108.226 11.7845 108.016 10.1581 108.016 9.6554C108.011 8.19371 108.961 7.47998 110.914 7.47998ZM108.298 4.34182C108.298 3.16061 109.276 2.45522 110.914 2.45522C112.551 2.45522 113.53 3.16061 113.53 4.34182C113.53 5.23421 112.845 6.27563 110.914 6.27563C108.983 6.27563 108.298 5.23698 108.298 4.3446V4.34182ZM117.219 5.15182C117.993 4.26869 119.129 3.80583 120.507 3.80583C123.155 3.80583 124.865 5.60449 124.867 8.38718C124.867 9.69891 124.493 10.8274 123.784 11.6429C123.007 12.5307 121.879 13 120.509 13C117.81 13 116.134 11.2328 116.134 8.38718C116.134 7.08007 116.504 5.96181 117.219 5.15182ZM120.507 11.1402C122.487 11.1402 122.753 9.75816 122.753 8.40569C122.753 6.4617 122.114 5.67114 120.507 5.67114C118.9 5.67114 118.244 6.4617 118.244 8.40569C118.244 10.8153 119.387 11.1402 120.507 11.1402ZM130.45 3.67716C129.388 3.67716 128.53 4.04744 127.894 4.77505V3.68456H125.823V12.7269H127.894V7.43277C127.894 6.94933 128.087 6.48591 128.428 6.14406C128.77 5.80222 129.233 5.60985 129.716 5.60912C130.38 5.60912 130.919 5.86369 131.231 6.33025C131.443 6.60796 131.551 6.99306 131.551 7.4698V12.7223H133.62V7.14487C133.62 4.84355 132.555 3.67716 130.45 3.67716ZM138.892 3.80583C140.129 3.80583 141.163 4.19833 141.881 4.9389C142.613 5.69428 143 6.79958 143 8.13631C143 8.29189 142.955 8.68638 142.932 8.89379C142.923 8.96776 142.918 9.01794 142.918 9.02499L142.907 9.10646H136.695C136.865 10.5524 137.561 11.2004 138.939 11.2004C139.746 11.2004 140.309 10.9912 140.658 10.5598L140.686 10.5256H142.862L142.819 10.6487C142.106 12.6945 140.054 13 138.895 13C136.194 13 134.583 11.2754 134.583 8.38718C134.583 7.08193 134.953 5.96459 135.654 5.15459C136.415 4.26869 137.536 3.80583 138.892 3.80583ZM138.908 5.60542C137.653 5.60542 136.985 6.13677 136.755 7.32261H140.9C140.743 6.15159 140.111 5.60542 138.908 5.60542Z" fill="white"/>
</svg>
