<svg width="32" height="32" viewBox="0 0 32 32" fill="none" xmlns="http://www.w3.org/2000/svg">
<path d="M8.83333 4L5 8.8V25.6C5 26.2365 5.26925 26.847 5.7485 27.2971C6.22776 27.7471 6.87778 28 7.55556 28H25.4444C26.1222 28 26.7722 27.7471 27.2515 27.2971C27.7308 26.847 28 26.2365 28 25.6V8.8L24.1667 4H8.83333Z" stroke="#030303" stroke-width="2" stroke-linecap="round" stroke-linejoin="round"/>
<path d="M5 8.80029H28" stroke="#030303" stroke-width="2" stroke-linecap="round" stroke-linejoin="round"/>
<path d="M21.6115 13.5999C21.6115 14.8738 21.073 16.0957 20.1145 16.9965C19.156 17.8974 17.8559 18.4035 16.5004 18.4035C15.1448 18.4035 13.8448 17.8974 12.8863 16.9965C11.9278 16.0957 11.3893 14.8738 11.3893 13.5999" stroke="#030303" stroke-width="2" stroke-linecap="round" stroke-linejoin="round"/>
</svg>
