<svg width="20" height="20" viewBox="0 0 20 20" fill="none" xmlns="http://www.w3.org/2000/svg">
<rect width="20" height="20" rx="10" fill="#E36305"/>
<path d="M10.0056 15.169C9.22008 15.1657 8.54892 14.9586 7.9921 14.5476C7.43528 14.1366 7.00938 13.5384 6.7144 12.7528C6.41942 11.9673 6.27193 11.0211 6.27193 9.91406C6.27193 8.81037 6.41942 7.86742 6.7144 7.08523C7.0127 6.30303 7.44025 5.70644 7.99707 5.29545C8.5572 4.88447 9.22671 4.67898 10.0056 4.67898C10.7845 4.67898 11.4523 4.88613 12.0091 5.30043C12.566 5.71141 12.9919 6.308 13.2868 7.0902C13.5851 7.86908 13.7343 8.81037 13.7343 9.91406C13.7343 11.0244 13.5868 11.9723 13.2918 12.7578C12.9968 13.54 12.5709 14.1383 12.0141 14.5526C11.4573 14.9635 10.7878 15.169 10.0056 15.169ZM10.0056 13.8416C10.695 13.8416 11.2336 13.5052 11.6214 12.8324C12.0125 12.1596 12.208 11.1868 12.208 9.91406C12.208 9.06889 12.1185 8.35464 11.9395 7.77131C11.7639 7.18466 11.5103 6.74053 11.1789 6.43892C10.8508 6.134 10.4597 5.98153 10.0056 5.98153C9.31951 5.98153 8.78092 6.3196 8.38983 6.99574C7.99873 7.67187 7.80152 8.64465 7.79821 9.91406C7.79821 10.7625 7.88604 11.4801 8.0617 12.0668C8.24068 12.6501 8.49423 13.0926 8.82235 13.3942C9.15048 13.6925 9.54489 13.8416 10.0056 13.8416Z" fill="white"/>
</svg>
