<svg width="286" height="24" viewBox="0 0 286 24" fill="none" xmlns="http://www.w3.org/2000/svg">
<rect width="34" height="24" rx="4" fill="white"/>
<path fill-rule="evenodd" clip-rule="evenodd" d="M17.179 16.8295C15.9949 17.8275 14.459 18.43 12.7807 18.43C9.03582 18.43 6 15.4303 6 11.73C6 8.02972 9.03582 5.03003 12.7807 5.03003C14.459 5.03003 15.9949 5.63253 17.179 6.63057C18.363 5.63253 19.8989 5.03003 21.5773 5.03003C25.3221 5.03003 28.358 8.02972 28.358 11.73C28.358 15.4303 25.3221 18.43 21.5773 18.43C19.8989 18.43 18.363 17.8275 17.179 16.8295Z" fill="#ED0006"/>
<path fill-rule="evenodd" clip-rule="evenodd" d="M17.179 16.8295C18.6369 15.6006 19.5614 13.772 19.5614 11.73C19.5614 9.68807 18.6369 7.85947 17.179 6.63057C18.363 5.63253 19.8989 5.03003 21.5772 5.03003C25.3221 5.03003 28.3579 8.02972 28.3579 11.73C28.3579 15.4303 25.3221 18.43 21.5772 18.43C19.8989 18.43 18.363 17.8275 17.179 16.8295Z" fill="#F9A000"/>
<path fill-rule="evenodd" clip-rule="evenodd" d="M17.179 16.8295C18.6369 15.6006 19.5614 13.772 19.5614 11.7301C19.5614 9.68811 18.6369 7.85952 17.179 6.63062C15.7211 7.85952 14.7966 9.68811 14.7966 11.7301C14.7966 13.772 15.7211 15.6006 17.179 16.8295Z" fill="#FF5E00"/>
<rect x="42" width="34" height="24" rx="4" fill="white"/>
<path fill-rule="evenodd" clip-rule="evenodd" d="M52.7502 15.8582H50.6905L49.1459 9.79235C49.0726 9.51332 48.917 9.26664 48.688 9.15038C48.1166 8.85821 47.4869 8.62568 46.8 8.50841V8.27487H50.1181C50.576 8.27487 50.9195 8.62568 50.9767 9.0331L51.7781 13.4086L53.8368 8.27487H55.8393L52.7502 15.8582ZM56.9842 15.8582H55.039L56.6408 8.27487H58.586L56.9842 15.8582ZM61.1027 10.3757C61.1599 9.96725 61.5034 9.73372 61.9041 9.73372C62.5338 9.67508 63.2197 9.79235 63.7921 10.0835L64.1356 8.45079C63.5631 8.21725 62.9335 8.09998 62.362 8.09998C60.474 8.09998 59.1002 9.15038 59.1002 10.6082C59.1002 11.7173 60.0733 12.2996 60.7602 12.6504C61.5034 13.0002 61.7896 13.2337 61.7324 13.5835C61.7324 14.1082 61.1599 14.3418 60.5885 14.3418C59.9016 14.3418 59.2147 14.1669 58.586 13.8747L58.2426 15.5084C58.9295 15.7996 59.6726 15.9169 60.3595 15.9169C62.4765 15.9745 63.7921 14.9251 63.7921 13.35C63.7921 11.3664 61.1027 11.2502 61.1027 10.3757ZM70.6 15.8582L69.0554 8.27487H67.3964C67.0529 8.27487 66.7095 8.50841 66.595 8.85821L63.7349 15.8582H65.7374L66.137 14.7502H68.5975L68.8265 15.8582H70.6ZM67.6826 10.3171L68.254 13.1751H66.6522L67.6826 10.3171Z" fill="#172B85"/>
<rect x="84" width="34" height="24" rx="4" fill="#1F72CD"/>
<path fill-rule="evenodd" clip-rule="evenodd" d="M90.0954 8.5L86.9143 15.7467H90.7225L91.1947 14.5913H92.2738L92.7459 15.7467H96.9377V14.8649L97.3112 15.7467H99.4795L99.8531 14.8462V15.7467H108.571L109.631 14.6213L110.623 15.7467L115.101 15.7561L111.91 12.1436L115.101 8.5H110.693L109.661 9.60463L108.7 8.5H99.2159L98.4015 10.3704L97.568 8.5H93.7677V9.35186L93.345 8.5H90.0954ZM90.8323 9.52905H92.6886L94.7986 14.4431V9.52905H96.8322L98.4619 13.0524L99.9639 9.52905H101.987V14.7291H100.756L100.746 10.6544L98.9511 14.7291H97.8498L96.0448 10.6544V14.7291H93.512L93.0319 13.5633H90.4377L89.9585 14.728H88.6015L90.8323 9.52905ZM108.12 9.52905H103.114V14.726H108.042L109.631 13.0036L111.162 14.726H112.763L110.436 12.1426L112.763 9.52905H111.232L109.651 11.2316L108.12 9.52905ZM91.7353 10.4089L90.8806 12.4856H92.589L91.7353 10.4089ZM104.35 11.555V10.6057V10.6048H107.474L108.837 12.1229L107.413 13.6493H104.35V12.613H107.081V11.555H104.35Z" fill="white"/>
<rect x="126" width="34" height="24" rx="4" fill="white"/>
<path fill-rule="evenodd" clip-rule="evenodd" d="M141.838 19.3H144.435C148.487 19.3 151.716 16.085 151.843 12.1135V12.0505C151.78 8.01596 148.487 4.7379 144.435 4.80094H141.522C137.659 4.92702 134.62 8.20508 134.747 12.1135C134.747 16.022 137.913 19.237 141.838 19.3ZM136.013 12.0505C136.013 8.77241 138.736 6.06171 142.028 6.06171C145.321 6.06171 148.044 8.77241 148.044 12.0505C148.044 15.3285 145.321 18.0392 142.028 18.0392C138.736 18.0392 136.013 15.3285 136.013 12.0505ZM142.978 16.085V8.07898C145.194 8.64634 146.587 10.8527 146.017 13.0591C145.638 14.5721 144.498 15.7068 142.978 16.085ZM138.103 11.0418C137.533 13.2482 138.862 15.5177 141.079 16.085V8.07898C139.622 8.45722 138.483 9.59193 138.103 11.0418Z" fill="#0079BE"/>
<rect x="168" width="34" height="24" rx="4" fill="white"/>
<path fill-rule="evenodd" clip-rule="evenodd" d="M182.614 18.4483L182.835 16.9992L182.343 16.9873H179.995L181.627 6.2937C181.632 6.26132 181.649 6.23126 181.673 6.20987C181.697 6.18849 181.727 6.17676 181.76 6.17676H185.719C187.033 6.17676 187.94 6.45939 188.413 7.01734C188.635 7.27908 188.777 7.55267 188.845 7.85364C188.917 8.16951 188.918 8.54685 188.848 9.00715L188.843 9.04063V9.33561L189.065 9.46563C189.252 9.56815 189.401 9.68546 189.515 9.81975C189.705 10.0436 189.827 10.3281 189.879 10.6652C189.933 11.012 189.915 11.4248 189.827 11.892C189.726 12.4295 189.562 12.8976 189.341 13.2805C189.138 13.6334 188.879 13.9262 188.571 14.153C188.277 14.3686 187.928 14.5322 187.533 14.6369C187.151 14.7398 186.715 14.7917 186.237 14.7917H185.929C185.708 14.7917 185.494 14.8737 185.326 15.0207C185.158 15.1708 185.047 15.3758 185.012 15.6L184.989 15.7305L184.599 18.2848L184.582 18.3785C184.577 18.4082 184.569 18.423 184.557 18.433C184.546 18.4422 184.531 18.4483 184.517 18.4483H182.614Z" fill="#28356A"/>
<path fill-rule="evenodd" clip-rule="evenodd" d="M189.276 9.07458C189.264 9.15267 189.25 9.23246 189.235 9.31445C188.713 12.0851 186.927 13.0422 184.646 13.0422H183.484C183.205 13.0422 182.97 13.2516 182.927 13.536L182.163 18.5393C182.135 18.7261 182.274 18.8944 182.457 18.8944H184.517C184.761 18.8944 184.968 18.7112 185.006 18.4626L185.027 18.3544L185.415 15.8102L185.439 15.6707C185.477 15.4211 185.685 15.2378 185.929 15.2378H186.237C188.233 15.2378 189.796 14.4003 190.252 11.9765C190.443 10.964 190.344 10.1185 189.84 9.52389C189.687 9.34464 189.497 9.1958 189.276 9.07458Z" fill="#298FC2"/>
<path fill-rule="evenodd" clip-rule="evenodd" d="M188.729 8.84956C188.649 8.82549 188.567 8.80374 188.483 8.78407C188.398 8.76488 188.311 8.7479 188.221 8.73299C187.908 8.68069 187.565 8.65588 187.198 8.65588H184.094C184.018 8.65588 183.945 8.67372 183.88 8.70598C183.737 8.7771 183.631 8.91714 183.605 9.08857L182.945 13.4101L182.926 13.5361C182.97 13.2516 183.205 13.0423 183.484 13.0423H184.645C186.927 13.0423 188.713 12.0847 189.235 9.31451C189.25 9.23252 189.264 9.15273 189.275 9.07464C189.143 9.00218 189 8.94023 188.846 8.88744C188.808 8.87437 188.769 8.86178 188.729 8.84956Z" fill="#22284F"/>
<path fill-rule="evenodd" clip-rule="evenodd" d="M183.605 9.08862C183.631 8.91718 183.738 8.77715 183.881 8.70652C183.946 8.67414 184.018 8.6563 184.095 8.6563H187.198C187.565 8.6563 187.908 8.68123 188.222 8.73353C188.311 8.74831 188.398 8.76542 188.483 8.7846C188.567 8.80415 188.65 8.82603 188.729 8.84998C188.769 8.8622 188.808 8.8749 188.847 8.88749C189.001 8.94028 189.144 9.00272 189.276 9.07469C189.431 8.05082 189.275 7.3537 188.739 6.72245C188.149 6.0274 187.083 5.72998 185.719 5.72998H181.76C181.482 5.72998 181.244 5.9393 181.201 6.22426L179.552 17.0279C179.519 17.2416 179.679 17.4344 179.887 17.4344H182.332L183.605 9.08862Z" fill="#28356A"/>
<rect x="210" width="34" height="24" rx="4" fill="white"/>
<path fill-rule="evenodd" clip-rule="evenodd" d="M226.058 15.5279V12.5933H227.572C228.193 12.5933 228.717 12.3853 229.144 11.9752L229.247 11.8712C230.027 11.022 229.975 9.69908 229.144 8.91343C228.728 8.49749 228.159 8.27219 227.572 8.28375H225.141V15.5279H226.058ZM226.058 11.7036V9.17333H227.596C227.926 9.17333 228.239 9.30042 228.473 9.5315C228.968 10.0168 228.979 10.8255 228.501 11.3281C228.268 11.5765 227.937 11.7152 227.596 11.7036H226.058ZM233.523 10.9584C233.13 10.5945 232.595 10.4096 231.917 10.4096C231.046 10.4096 230.391 10.7331 229.958 11.3744L230.767 11.8885C231.063 11.4495 231.467 11.2299 231.98 11.2299C232.304 11.2299 232.617 11.3512 232.862 11.5708C233.101 11.7787 233.238 12.0791 233.238 12.3969V12.6106C232.885 12.4142 232.441 12.3102 231.894 12.3102C231.257 12.3102 230.744 12.4604 230.363 12.7666C229.981 13.0728 229.787 13.4771 229.787 13.9913C229.776 14.4592 229.975 14.904 230.328 15.2044C230.687 15.5279 231.143 15.6897 231.678 15.6897C232.31 15.6897 232.811 15.4066 233.193 14.8405H233.232V15.5279H234.109V12.472C234.109 11.8307 233.916 11.3224 233.523 10.9584ZM231.035 14.6152C230.847 14.4765 230.733 14.2513 230.733 14.0086C230.733 13.7371 230.858 13.5118 231.103 13.3327C231.354 13.1536 231.667 13.0612 232.037 13.0612C232.55 13.0554 232.948 13.171 233.233 13.4021C233.233 13.7949 233.079 14.1357 232.777 14.4246C232.504 14.7018 232.134 14.8578 231.747 14.8578C231.49 14.8636 231.24 14.7769 231.035 14.6152ZM236.079 17.7058L239.143 10.5714H238.146L236.729 14.1299H236.712L235.26 10.5714H234.263L236.273 15.2102L235.134 17.7058H236.079Z" fill="#3C4043"/>
<path d="M222.893 11.9578C222.893 11.6747 222.87 11.3917 222.825 11.1144H218.958V12.7146H221.173C221.082 13.2287 220.786 13.6909 220.353 13.9797V15.0195H221.674C222.449 14.2974 222.893 13.2287 222.893 11.9578Z" fill="#4285F4"/>
<path d="M218.958 16.0247C220.063 16.0247 220.997 15.655 221.675 15.0196L220.354 13.9797C219.983 14.2339 219.511 14.3783 218.958 14.3783C217.888 14.3783 216.983 13.6447 216.658 12.6626H215.297V13.7371C215.992 15.1409 217.41 16.0247 218.958 16.0247Z" fill="#34A853"/>
<path d="M216.658 12.6626C216.487 12.1485 216.487 11.5882 216.658 11.0682V9.99951H215.297C214.711 11.1722 214.711 12.5587 215.297 13.7314L216.658 12.6626Z" fill="#FBBC04"/>
<path d="M218.958 9.35247C219.545 9.34092 220.109 9.56621 220.53 9.97637L221.703 8.78634C220.957 8.08156 219.978 7.69451 218.958 7.70606C217.41 7.70606 215.992 8.5957 215.297 9.99948L216.658 11.074C216.983 10.0861 217.888 9.35247 218.958 9.35247Z" fill="#EA4335"/>
<rect x="252" width="34" height="24" rx="4" fill="white"/>
<path fill-rule="evenodd" clip-rule="evenodd" d="M261.449 8.34316C261.164 8.69506 260.707 8.97261 260.251 8.93296C260.194 8.45715 260.417 7.95161 260.679 7.63936C260.964 7.27755 261.463 7.01983 261.868 7C261.915 7.49563 261.73 7.98135 261.449 8.34316ZM261.863 9.02712C261.461 9.003 261.094 9.15319 260.797 9.2745C260.606 9.35256 260.445 9.41867 260.322 9.41867C260.184 9.41867 260.016 9.34903 259.827 9.27084L259.827 9.27084C259.579 9.16838 259.296 9.05124 259 9.05686C258.319 9.06677 257.687 9.46823 257.34 10.1076C256.626 11.3863 257.154 13.2796 257.844 14.3205C258.182 14.8359 258.586 15.4009 259.119 15.3811C259.353 15.3719 259.521 15.2973 259.696 15.2202C259.897 15.1314 260.105 15.0391 260.431 15.0391C260.746 15.0391 260.945 15.129 261.137 15.2152C261.319 15.2973 261.494 15.376 261.754 15.3712C262.305 15.3613 262.653 14.8557 262.99 14.3403C263.355 13.7871 263.515 13.2471 263.539 13.1652L263.542 13.1557C263.541 13.1551 263.537 13.153 263.529 13.1492C263.407 13.0911 262.476 12.6469 262.467 11.4557C262.458 10.4559 263.206 9.94935 263.323 9.86961L263.323 9.8696C263.33 9.86476 263.335 9.86149 263.337 9.85978C262.862 9.12625 262.12 9.04695 261.863 9.02712ZM265.682 15.3167V7.5898H268.465C269.901 7.5898 270.905 8.62071 270.905 10.1274C270.905 11.6341 269.882 12.675 268.427 12.675H266.833V15.3167H265.682ZM266.833 8.60088H268.16C269.159 8.60088 269.73 9.15599 269.73 10.1324C269.73 11.1088 269.159 11.6688 268.156 11.6688H266.833V8.60088ZM274.705 14.3898C274.401 14.9945 273.73 15.3761 273.007 15.3761C271.937 15.3761 271.19 14.712 271.19 13.7108C271.19 12.7196 271.913 12.1496 273.25 12.0653L274.686 11.9761V11.5499C274.686 10.9204 274.291 10.5784 273.588 10.5784C273.007 10.5784 272.584 10.8907 272.498 11.3665H271.461C271.495 10.3653 272.398 9.63675 273.621 9.63675C274.938 9.63675 275.794 10.3554 275.794 11.4706V15.3167H274.729V14.3898H274.705ZM273.316 14.4592C272.703 14.4592 272.313 14.1519 272.313 13.6811C272.313 13.1954 272.688 12.9129 273.407 12.8683L274.686 12.784V13.2202C274.686 13.9438 274.096 14.4592 273.316 14.4592ZM279.328 15.619C278.867 16.9721 278.339 17.4181 277.217 17.4181C277.131 17.4181 276.846 17.4082 276.779 17.3884V16.4616C276.85 16.4715 277.026 16.4814 277.117 16.4814C277.626 16.4814 277.911 16.2584 278.087 15.6785L278.192 15.3365L276.242 9.7111H277.445L278.8 14.2759H278.824L280.18 9.7111H281.35L279.328 15.619Z" fill="black"/>
</svg>
