<svg width="132" height="40" viewBox="0 0 132 40" fill="none" xmlns="http://www.w3.org/2000/svg">
<path d="M24.4998 11.75H22.0452C20.9602 11.75 19.9197 12.1846 19.1525 12.9582C18.3853 13.7318 17.9543 14.781 17.9543 15.875V18.35H15.4998V21.65H17.9543V28.25H21.227V21.65H23.6816L24.4998 18.35H21.227V15.875C21.227 15.6562 21.3132 15.4464 21.4667 15.2916C21.6201 15.1369 21.8282 15.05 22.0452 15.05H24.4998V11.75Z" stroke="white" stroke-width="2" stroke-linecap="round" stroke-linejoin="round"/>
<path d="M70.5002 11H61.5002C59.015 11 57.0002 13.0147 57.0002 15.5V24.5C57.0002 26.9853 59.015 29 61.5002 29H70.5002C72.9855 29 75.0002 26.9853 75.0002 24.5V15.5C75.0002 13.0147 72.9855 11 70.5002 11Z" stroke="white" stroke-width="2" stroke-linecap="round" stroke-linejoin="round"/>
<path d="M69.5991 19.433C69.7101 20.182 69.5822 20.947 69.2334 21.6191C68.8847 22.2913 68.3329 22.8363 67.6565 23.1767C66.9801 23.5172 66.2137 23.6357 65.4661 23.5154C64.7185 23.3951 64.0278 23.0421 63.4924 22.5067C62.957 21.9712 62.604 21.2806 62.4837 20.533C62.3634 19.7854 62.4819 19.0189 62.8223 18.3426C63.1628 17.6662 63.7078 17.1144 64.3799 16.7656C65.0521 16.4169 65.817 16.289 66.5661 16.4C67.3301 16.5133 68.0374 16.8693 68.5836 17.4155C69.1297 17.9617 69.4858 18.669 69.5991 19.433Z" stroke="white" stroke-width="2" stroke-linecap="round" stroke-linejoin="round"/>
<path d="M70.9504 15.0499H70.9614" stroke="white" stroke-width="1.6" stroke-linecap="round" stroke-linejoin="round"/>
<path d="M121 12.5084C120.217 13.0731 119.349 13.5049 118.431 13.7874C117.938 13.2085 117.284 12.7982 116.555 12.612C115.827 12.4258 115.06 12.4726 114.358 12.7462C113.657 13.0198 113.054 13.5069 112.633 14.1416C112.211 14.7764 111.99 15.5281 112 16.2953V17.1312C110.562 17.1693 109.138 16.8435 107.853 16.1828C106.568 15.5221 105.463 14.547 104.637 13.3444C104.637 13.3444 101.364 20.8679 108.728 24.2117C107.042 25.3803 105.035 25.9663 103 25.8836C110.364 30.0633 119.364 25.8836 119.364 16.2702C119.363 16.0373 119.341 15.805 119.298 15.5763C120.133 14.735 120.723 13.6726 121 12.5084V12.5084Z" stroke="white" stroke-width="2" stroke-linecap="round" stroke-linejoin="round"/>
</svg>
