<svg width="129" height="20" viewBox="0 0 129 20" fill="none" xmlns="http://www.w3.org/2000/svg">
<path d="M1.23053 5.27273H3.16519L5.7561 11.5966H5.85837L8.44928 5.27273H10.3839V14H8.86689V8.00426H8.78593L6.374 13.9744H5.24047L2.82854 7.99148H2.74757V14H1.23053V5.27273ZM13.8729 14.1321C13.4581 14.1321 13.0845 14.0582 12.7521 13.9105C12.4226 13.7599 12.1612 13.5384 11.968 13.2457C11.7777 12.9531 11.6825 12.5923 11.6825 12.1634C11.6825 11.794 11.7507 11.4886 11.8871 11.2472C12.0234 11.0057 12.2095 10.8125 12.4453 10.6676C12.6811 10.5227 12.9467 10.4134 13.2422 10.3395C13.5405 10.2628 13.8487 10.2074 14.1669 10.1733C14.5504 10.1335 14.8615 10.098 15.1001 10.0668C15.3388 10.0327 15.5121 9.98153 15.62 9.91335C15.7308 9.84233 15.7862 9.73295 15.7862 9.58523V9.55966C15.7862 9.23864 15.6911 8.99006 15.5007 8.81392C15.3104 8.63778 15.0362 8.54972 14.6783 8.54972C14.3004 8.54972 14.0007 8.6321 13.7791 8.79688C13.5604 8.96165 13.4126 9.15625 13.3359 9.38068L11.8956 9.17614C12.0092 8.77841 12.1967 8.44602 12.4581 8.17898C12.7195 7.90909 13.0391 7.70739 13.4169 7.57386C13.7947 7.4375 14.2124 7.36932 14.6697 7.36932C14.9851 7.36932 15.299 7.40625 15.6115 7.48011C15.924 7.55398 16.2095 7.67614 16.468 7.84659C16.7266 8.0142 16.9339 8.2429 17.0902 8.53267C17.2493 8.82244 17.3288 9.18466 17.3288 9.61932V14H15.8459V13.1009H15.7947C15.701 13.2827 15.5689 13.4531 15.3984 13.6122C15.2308 13.7685 15.0192 13.8949 14.7635 13.9915C14.5107 14.0852 14.2138 14.1321 13.8729 14.1321ZM14.2734 12.9986C14.5831 12.9986 14.8516 12.9375 15.0788 12.8153C15.3061 12.6903 15.4808 12.5256 15.603 12.321C15.728 12.1165 15.7905 11.8935 15.7905 11.652V10.8807C15.7422 10.9205 15.6598 10.9574 15.5433 10.9915C15.4297 11.0256 15.3018 11.0554 15.1598 11.081C15.0178 11.1065 14.8771 11.1293 14.7379 11.1491C14.5987 11.169 14.478 11.1861 14.3757 11.2003C14.1456 11.2315 13.9396 11.2827 13.7578 11.3537C13.576 11.4247 13.4325 11.5241 13.3274 11.652C13.2223 11.777 13.1697 11.9389 13.1697 12.1378C13.1697 12.4219 13.2734 12.6364 13.4808 12.7812C13.6882 12.9261 13.9524 12.9986 14.2734 12.9986ZM21.2609 14.1151C20.7467 14.1151 20.2865 13.983 19.8803 13.7188C19.474 13.4545 19.153 13.071 18.9172 12.5682C18.6814 12.0653 18.5635 11.4545 18.5635 10.7358C18.5635 10.0085 18.6828 9.39489 18.9215 8.89489C19.1629 8.39205 19.4882 8.01278 19.8973 7.7571C20.3064 7.49858 20.7624 7.36932 21.2652 7.36932C21.6487 7.36932 21.9641 7.43466 22.2112 7.56534C22.4584 7.69318 22.6544 7.84801 22.7993 8.02983C22.9442 8.20881 23.0564 8.37784 23.1359 8.53693H23.1999V5.27273H24.7467V14H23.2297V12.9688H23.1359C23.0564 13.1278 22.9413 13.2969 22.7908 13.4759C22.6402 13.652 22.4413 13.8026 22.1942 13.9276C21.947 14.0526 21.6359 14.1151 21.2609 14.1151ZM21.6913 12.8494C22.0181 12.8494 22.2965 12.7614 22.5266 12.5852C22.7567 12.4062 22.9314 12.1577 23.0507 11.8395C23.17 11.5213 23.2297 11.1506 23.2297 10.7273C23.2297 10.304 23.17 9.93608 23.0507 9.62358C22.9342 9.31108 22.7609 9.06818 22.5308 8.89489C22.3036 8.72159 22.0237 8.63494 21.6913 8.63494C21.3476 8.63494 21.0607 8.72443 20.8306 8.90341C20.6004 9.08239 20.4271 9.32955 20.3107 9.64489C20.1942 9.96023 20.1359 10.321 20.1359 10.7273C20.1359 11.1364 20.1942 11.5014 20.3107 11.8224C20.43 12.1406 20.6047 12.392 20.8348 12.5767C21.0678 12.7585 21.3533 12.8494 21.6913 12.8494ZM29.2403 14.1278C28.584 14.1278 28.0173 13.9915 27.54 13.7188C27.0656 13.4432 26.7005 13.054 26.4448 12.5511C26.1892 12.0455 26.0613 11.4503 26.0613 10.7656C26.0613 10.0923 26.1892 9.50142 26.4448 8.9929C26.7034 8.48153 27.0642 8.08381 27.5272 7.79972C27.9903 7.51278 28.5343 7.36932 29.1593 7.36932C29.5627 7.36932 29.9434 7.43466 30.3014 7.56534C30.6622 7.69318 30.9804 7.89205 31.2559 8.16193C31.5343 8.43182 31.7531 8.77557 31.9122 9.19318C32.0713 9.60795 32.1508 10.1023 32.1508 10.6761V11.1491H26.7857V10.1094H30.6721C30.6693 9.81392 30.6054 9.55114 30.4804 9.32102C30.3554 9.08807 30.1806 8.90483 29.9562 8.77131C29.7346 8.63778 29.4761 8.57102 29.1806 8.57102C28.8653 8.57102 28.5883 8.64773 28.3497 8.80114C28.111 8.9517 27.925 9.15057 27.7914 9.39773C27.6607 9.64205 27.594 9.91051 27.5911 10.2031V11.1108C27.5911 11.4915 27.6607 11.8182 27.8 12.0909C27.9392 12.3608 28.1338 12.5682 28.3838 12.7131C28.6338 12.8551 28.9264 12.9261 29.2616 12.9261C29.486 12.9261 29.6892 12.8949 29.871 12.8324C30.0528 12.767 30.2105 12.6719 30.344 12.5469C30.4775 12.4219 30.5784 12.267 30.6465 12.0824L32.0869 12.2443C31.996 12.625 31.8227 12.9574 31.567 13.2415C31.3142 13.5227 30.9903 13.7415 30.5954 13.8977C30.2005 14.0511 29.7488 14.1278 29.2403 14.1278ZM37.6873 14L35.8378 7.45455H37.4103L38.5608 12.0568H38.6205L39.7966 7.45455H41.352L42.5282 12.0312H42.5921L43.7256 7.45455H45.3023L43.4486 14H41.8421L40.6148 9.5767H40.5253L39.2981 14H37.6873ZM46.3314 14V7.45455H47.874V14H46.3314ZM47.1069 6.52557C46.8626 6.52557 46.6524 6.4446 46.4763 6.28267C46.3001 6.1179 46.2121 5.92045 46.2121 5.69034C46.2121 5.45739 46.3001 5.25994 46.4763 5.09801C46.6524 4.93324 46.8626 4.85085 47.1069 4.85085C47.3541 4.85085 47.5643 4.93324 47.7376 5.09801C47.9138 5.25994 48.0018 5.45739 48.0018 5.69034C48.0018 5.92045 47.9138 6.1179 47.7376 6.28267C47.5643 6.4446 47.3541 6.52557 47.1069 6.52557ZM52.6808 7.45455V8.64773H48.918V7.45455H52.6808ZM49.8469 5.88636H51.3896V12.0312C51.3896 12.2386 51.4208 12.3977 51.4833 12.5085C51.5487 12.6165 51.6339 12.6903 51.739 12.7301C51.8441 12.7699 51.9606 12.7898 52.0884 12.7898C52.185 12.7898 52.2731 12.7827 52.3526 12.7685C52.435 12.7543 52.4975 12.7415 52.5401 12.7301L52.8001 13.9361C52.7177 13.9645 52.5998 13.9957 52.4464 14.0298C52.2958 14.0639 52.1112 14.0838 51.8924 14.0895C51.506 14.1009 51.158 14.0426 50.8484 13.9148C50.5387 13.7841 50.293 13.5824 50.1112 13.3097C49.9322 13.0369 49.8441 12.696 49.8469 12.2869V5.88636ZM55.6061 10.1648V14H54.0635V5.27273H55.572V8.56676H55.6487C55.8021 8.19744 56.0394 7.90625 56.3604 7.69318C56.6842 7.47727 57.0962 7.36932 57.5962 7.36932C58.0507 7.36932 58.447 7.46449 58.7851 7.65483C59.1232 7.84517 59.3845 8.12358 59.5692 8.49006C59.7567 8.85653 59.8504 9.30398 59.8504 9.83239V14H58.3078V10.071C58.3078 9.63068 58.1942 9.28835 57.9669 9.04403C57.7425 8.79687 57.4271 8.6733 57.0209 8.6733C56.7482 8.6733 56.5038 8.73295 56.2879 8.85227C56.0749 8.96875 55.9073 9.13778 55.7851 9.35938C55.6658 9.58097 55.6061 9.84943 55.6061 10.1648Z" fill="#9FA3A6"/>
<path d="M113.476 7.49054H111.468V14.316C111.467 14.4447 111.363 14.5487 111.233 14.5497H109.687C109.557 14.5487 109.453 14.4447 109.452 14.316V7.49054H107.429C107.368 7.49301 107.309 7.4707 107.264 7.42871C107.22 7.38671 107.195 7.32863 107.194 7.26777V6.05898C107.195 5.99812 107.22 5.94004 107.264 5.89804C107.309 5.85605 107.368 5.83374 107.429 5.83621H113.472C113.603 5.83 113.714 5.92955 113.721 6.05898V7.26777C113.714 7.39572 113.605 7.4947 113.476 7.49054Z" fill="white"/>
<path d="M119.914 14.5038C119.123 14.6163 118.324 14.6675 117.524 14.6572C116 14.6572 114.655 14.2701 114.655 12.1355V8.24077C114.655 6.10621 116.013 5.73189 117.535 5.73189C118.329 5.7211 119.122 5.77177 119.907 5.88345C120.072 5.90718 120.142 5.96561 120.142 6.11717V7.21275C120.141 7.34142 120.037 7.44548 119.907 7.44647H117.425C116.874 7.44647 116.669 7.62907 116.669 8.24442V9.31078H119.821C119.95 9.31178 120.055 9.41584 120.056 9.54451V10.6583C120.055 10.787 119.95 10.8911 119.821 10.8921H116.669V12.1355C116.669 12.7454 116.87 12.9335 117.425 12.9335H119.914C120.044 12.9345 120.149 13.0386 120.15 13.1672V14.2628C120.152 14.4089 120.08 14.4801 119.914 14.5038Z" fill="white"/>
<path d="M128.824 14.5494H126.946C126.816 14.559 126.693 14.4859 126.639 14.3668L125.011 11.8104L123.54 14.3193C123.457 14.4599 123.374 14.553 123.244 14.553H121.501C121.455 14.5612 121.408 14.5487 121.373 14.5191C121.337 14.4895 121.317 14.4457 121.317 14.3996C121.32 14.371 121.328 14.343 121.341 14.3175L123.902 10.0831L121.317 6.05864C121.304 6.03702 121.296 6.01266 121.293 5.98743C121.302 5.89497 121.384 5.82665 121.477 5.83404H123.378C123.509 5.83404 123.602 5.95091 123.674 6.05681L125.185 8.43057L126.656 6.05681C126.709 5.93676 126.821 5.85254 126.952 5.83404H128.7C128.794 5.82665 128.875 5.89497 128.884 5.98743C128.882 6.01266 128.874 6.03702 128.86 6.05864L126.286 10.1068L128.965 14.3065C128.986 14.3422 128.998 14.3822 129 14.4234C128.978 14.5037 128.917 14.5494 128.824 14.5494Z" fill="white"/>
<path d="M104.367 5.85943C104.278 5.85748 104.201 5.91802 104.183 6.00368L102.467 12.3069C102.444 12.4366 102.409 12.4895 102.302 12.4895C102.195 12.4895 102.16 12.442 102.136 12.3069L100.427 6.00368C100.408 5.91802 100.331 5.85748 100.243 5.85943H98.5552C98.4985 5.85805 98.4444 5.88269 98.4085 5.92622C98.3726 5.96975 98.3589 6.0273 98.3713 6.0822C98.3713 6.0822 100.465 13.3075 100.487 13.3861C100.767 14.2479 101.445 14.6642 102.307 14.6642C103.135 14.6937 103.88 14.1705 104.128 13.3861C104.161 13.2875 106.209 6.0822 106.209 6.0822C106.22 6.02757 106.206 5.97056 106.171 5.92748C106.135 5.88441 106.081 5.86001 106.025 5.86126L104.367 5.85943Z" fill="white"/>
<path d="M94.8011 7.47998e-05H77.2034C76.5666 0.00585704 75.9788 0.340463 75.6519 0.88324C75.325 1.42602 75.3061 2.09868 75.6021 2.65868L77.3634 5.98924H74.1718C73.7641 5.98187 73.3828 6.18937 73.1697 6.53469C72.9566 6.88001 72.9433 7.31157 73.1349 7.66913L78.7974 18.2962C79.0006 18.6779 79.3996 18.9166 79.8342 18.9166C80.2689 18.9166 80.6679 18.6779 80.8711 18.2962L82.4081 15.4167L84.3385 19.0431C84.6523 19.6318 85.2681 20 85.9388 20C86.6096 20 87.2253 19.6318 87.5392 19.0431L96.3638 2.56373C96.656 2.02131 96.6384 1.36605 96.3177 0.83981C95.9969 0.313569 95.4204 -0.00561433 94.8011 7.47998e-05ZM86.938 6.96248L83.0773 14.1531C82.9446 14.4015 82.6847 14.5568 82.4016 14.5568C82.1186 14.5568 81.8587 14.4015 81.726 14.1531L77.9149 7.03187C77.7973 6.81271 77.8042 6.54834 77.933 6.3355C78.0618 6.12266 78.2936 5.99259 78.5437 5.99289H86.3424C86.5774 5.9893 86.7967 6.1094 86.9191 6.30865C87.0415 6.5079 87.0487 6.75658 86.938 6.96248Z" fill="white"/>
</svg>
