<svg width="25" height="24" viewBox="0 0 25 24" fill="none" xmlns="http://www.w3.org/2000/svg">
<path d="M7.125 3L4.25 6.6V19.2C4.25 19.6774 4.45193 20.1352 4.81138 20.4728C5.17082 20.8104 5.65834 21 6.16667 21H19.5833C20.0917 21 20.5792 20.8104 20.9386 20.4728C21.2981 20.1352 21.5 19.6774 21.5 19.2V6.6L18.625 3H7.125Z" stroke="white" stroke-width="2" stroke-linecap="round" stroke-linejoin="round"/>
<path d="M4.25 6.60028H21.5" stroke="white" stroke-width="2" stroke-linecap="round" stroke-linejoin="round"/>
<path d="M16.7087 10.1998C16.7087 11.1553 16.3048 12.0717 15.5859 12.7473C14.867 13.423 13.892 13.8025 12.8753 13.8025C11.8587 13.8025 10.8836 13.423 10.1647 12.7473C9.44586 12.0717 9.04199 11.1553 9.04199 10.1998" stroke="white" stroke-width="2" stroke-linecap="round" stroke-linejoin="round"/>
</svg>
